Patient4_TMGait_0pt7_01_left_15_GRF.mot
version=1
nRows=78
nColumns=19
inDegrees=no
endheader
time	F1x	F1y	F1z	M1x	M1y	M1z	F2x	F2y	F2z	M2x	M2y	M2z	EC1x	EC1y	EC1z	EC2x	EC2y	EC2z
17.17	5.415	5.1194	3.4015	-2.7099	-0.15851	-2.1704	-42.093	744.4159	-83.7532	265.1843	105.3456	838.2324	-0.0592	0.0182	-0.0073	-0.0462	0.0165	0.9585
17.1814	3.5535	4.2727	2.337	-2.1226	-0.20728	-0.44744	-42.1937	750.8034	-80.3818	267.3902	103.2124	842.39	-0.0592	0.0182	-0.0073	-0.0462	0.0165	0.9585
17.1929	1.9992	3.6486	1.4299	-1.662	-0.23787	1.106	-41.8694	755.862	-77.3235	269.2701	100.9048	844.2474	-0.0592	0.0182	-0.0073	-0.0462	0.0165	0.9585
17.2043	0.81499	3.2934	0.74486	-1.3507	-0.26832	2.4238	-40.8533	759.0254	-74.6587	270.6408	98.3569	843.1787	-0.0592	0.0182	-0.0073	-0.0462	0.0165	0.9585
17.2157	0.0068713	3.1512	0.26466	-1.1691	-0.28184	3.4259	-38.8408	760.1793	-72.4286	271.4618	95.5257	839.0402	-0.0592	0.0182	-0.0073	-0.0462	0.0165	0.9585
17.2271	-0.50702	3.2021	-0.028761	-1.0975	-0.30007	4.1763	-35.6352	759.6201	-70.5838	271.8396	92.3456	832.1562	-0.0592	0.0182	-0.0073	-0.0462	0.0165	0.9585
17.2386	-0.78253	3.3379	-0.18057	-1.0931	-0.31839	4.6633	-31.1232	758.1263	-69.0544	272.0438	88.7804	823.3837	-0.0592	0.0182	-0.0073	-0.0462	0.0165	0.9585
17.25	-0.9179	3.4761	-0.23019	-1.1163	-0.34746	4.9262	-25.3942	756.8071	-67.7828	272.4511	84.8702	813.9962	-0.0592	0.0182	-0.0073	-0.0462	0.0165	0.9585
17.2614	-0.95933	3.5192	-0.19856	-1.123	-0.40182	4.9324	-18.7219	756.7471	-66.6574	273.4221	80.6619	805.32	-0.0592	0.0182	-0.0073	-0.0462	0.0165	0.9585
17.2729	-0.98131	3.3631	-0.12693	-1.0676	-0.47913	4.6433	-11.5282	758.6828	-65.6764	275.1702	76.342	798.3793	-0.0592	0.0182	-0.0073	-0.0462	0.0165	0.9585
17.2843	-1.008	2.9081	-0.011617	-0.90617	-0.60076	3.9657	-4.3102	762.6678	-64.8219	277.6528	72.1004	793.5086	-0.0592	0.0182	-0.0073	-0.0462	0.0165	0.9585
17.2957	-1.0843	2.0426	0.10467	-0.59561	-0.73711	2.8114	2.4361	768.0569	-64.1731	280.5664	68.2032	790.341	-0.0592	0.0182	-0.0073	-0.0462	0.0165	0.9585
17.3071	-1.1872	0.66845	0.22496	-0.097962	-0.88133	1.062	8.3271	773.7241	-63.7428	283.436	64.8109	788.0024	-0.0592	0.0182	-0.0073	-0.0462	0.0165	0.9585
17.3186	-1.3078	-1.2674	0.3122	0.60614	-0.98852	-1.3338	13.0923	778.2485	-63.5265	285.6971	62.0174	785.2578	-0.0592	0.0182	-0.0073	-0.0462	0.0165	0.9585
17.33	-1.3525	-3.743	0.35145	1.5066	-1.0088	-4.3514	16.678	780.3315	-63.4787	286.8431	59.8043	780.9258	-0.0592	0.0182	-0.0073	-0.0462	0.0165	0.9585
17.3414	-1.2336	-6.5458	0.30438	2.5234	-0.8595	-7.7329	19.1772	778.9426	-63.5128	286.491	58.0574	774.0067	-0.0592	0.0182	-0.0073	-0.0462	0.0165	0.9585
17.3529	-0.78179	-9.2296	0.12281	3.4869	-0.42524	-10.9594	20.8123	773.5433	-63.5916	284.4517	56.6613	763.9175	-0.0592	0.0182	-0.0073	-0.0462	0.0165	0.9585
17.3643	0.16131	-10.9796	-0.24008	4.0913	0.41286	-13.0506	21.9098	764.1586	-63.6723	280.7553	55.4688	750.5717	-0.0592	0.0182	-0.0073	-0.0462	0.0165	0.9585
17.3757	1.7981	-10.5661	-0.8537	3.8705	1.8023	-12.5566	22.7357	751.2801	-63.7991	275.6141	54.4302	734.3346	-0.0592	0.0182	-0.0073	-0.0462	0.0165	0.9585
17.3871	4.2747	-6.2517	-1.7446	2.1734	3.8317	-7.3974	23.57	735.8061	-63.9928	269.3946	53.4841	715.9528	-0.0592	0.0182	-0.0073	-0.0462	0.0165	0.9585
17.3986	7.6794	4.1512	-2.9297	-1.8207	6.5423	5.0245	24.5521	718.7557	-64.2959	262.5187	52.6317	696.3116	-0.0592	0.0182	-0.0073	-0.0462	0.0165	0.9585
17.41	11.8921	23.1515	-4.3226	-9.0403	9.7773	27.7165	25.8174	701.1166	-64.6433	255.4057	51.7903	676.2816	-0.0592	0.0182	-0.0073	-0.0462	0.0165	0.9585
17.4214	16.5162	53.1237	-5.7469	-20.3603	13.1562	63.5388	27.4109	683.6025	-64.9191	248.3756	50.8558	656.5116	-0.0592	0.0182	-0.0073	-0.0462	0.0165	0.9585
17.4329	20.6663	95.6546	-6.8424	-36.3418	15.9032	114.4254	29.3494	666.4279	-64.8804	241.5677	49.6153	637.2003	-0.0592	0.0182	-0.0073	-0.0462	0.0165	0.9585
17.4443	22.8683	150.4069	-7.0393	-56.8157	16.7731	180.0212	31.5749	649.2413	-64.2627	234.8976	47.855	618.0692	-0.0592	0.0182	-0.0073	-0.0462	0.0165	0.9585
17.4557	21.2686	214.2768	-5.5509	-80.5648	14.1661	256.6851	33.9544	631.0783	-62.8133	228.0447	45.3905	598.2541	-0.0592	0.0182	-0.0073	-0.0462	0.0165	0.9585
17.4671	15.2396	281.7173	-1.5127	-105.4412	6.849	337.7941	36.2967	610.6142	-60.3819	220.5315	42.1498	576.5707	-0.0592	0.0182	-0.0073	-0.0462	0.0165	0.9585
17.4786	6.0197	345.565	5.7527	-128.7399	-5.4378	414.5962	38.4034	586.3924	-57.0266	211.8125	38.249	551.6873	-0.0592	0.0182	-0.0073	-0.0462	0.0165	0.9585
17.49	-4.4942	399.5675	15.7312	-148.2177	-21.2874	479.2338	40.0767	557.1175	-52.954	201.3832	33.9328	522.4212	-0.0592	0.0182	-0.0073	-0.0462	0.0165	0.9585
17.5014	-14.6117	441.9973	26.8264	-163.3497	-38.1575	529.2986	41.1501	521.9434	-48.5019	188.8856	29.5491	487.9809	-0.0592	0.0182	-0.0073	-0.0462	0.0165	0.9585
17.5129	-23.5763	475.4021	37.2419	-175.2014	-53.6031	567.7197	41.4439	480.6975	-43.9514	174.2	25.3941	448.2126	-0.0592	0.0182	-0.0073	-0.0462	0.0165	0.9585
17.5243	-30.8537	503.8298	45.58	-185.375	-65.8346	599.2888	40.7554	433.8986	-39.5131	157.4668	21.7029	403.5853	-0.0592	0.0182	-0.0073	-0.0462	0.0165	0.9585
17.5357	-36.3877	530.5381	51.3389	-195.1181	-74.2302	628.0201	38.879	382.7297	-35.2255	139.084	18.5599	355.2031	-0.0592	0.0182	-0.0073	-0.0462	0.0165	0.9585
17.5471	-40.0444	557.1192	54.4694	-205.0159	-78.7647	655.7718	35.6584	328.8814	-31.0444	119.6541	15.9672	304.6325	-0.0592	0.0182	-0.0073	-0.0462	0.0165	0.9585
17.5586	-41.9018	583.9029	55.8825	-215.101	-80.5347	683.0672	31.1191	274.4603	-26.9415	99.9406	13.8889	253.8314	-0.0592	0.0182	-0.0073	-0.0462	0.0165	0.9585
17.57	-42.0648	610.6464	56.494	-225.18	-80.7129	709.6483	25.5429	221.73	-22.9375	80.7771	12.2461	204.8586	-0.0592	0.0182	-0.0073	-0.0462	0.0165	0.9585
17.5814	-40.8783	637.0515	57.2853	-235.0169	-80.5724	735.3752	19.4891	172.7949	-19.1137	62.946	10.9146	159.5956	-0.0592	0.0182	-0.0073	-0.0462	0.0165	0.9585
17.5929	-38.6886	662.7242	58.8166	-244.3739	-80.9185	759.9227	13.6602	129.2699	-15.5251	47.0564	9.6989	119.4577	-0.0592	0.0182	-0.0073	-0.0462	0.0165	0.9585
17.6043	-36.0323	687.1466	61.3319	-252.9862	-82.2247	782.8663	8.5988	92.0793	-12.2068	33.4701	8.439	85.2273	-0.0592	0.0182	-0.0073	-0.0462	0.0165	0.9585
17.6157	-33.2506	709.6281	64.7795	-260.5737	-84.5544	803.5561	4.5954	61.6197	-9.1722	22.3494	7.052	57.2305	-0.0592	0.0182	-0.0073	-0.0462	0.0165	0.9585
17.6271	-30.6198	729.5723	68.6703	-266.9306	-87.4695	821.4405	1.6789	37.8611	-6.4725	13.6913	5.5788	35.4123	-0.0592	0.0182	-0.0073	-0.0462	0.0165	0.9585
17.6386	-28.2107	746.3988	72.5529	-271.8927	-90.478	835.9276	-0.23217	20.4644	-4.1692	7.3664	4.114	19.4578	-0.0592	0.0182	-0.0073	-0.0462	0.0165	0.9585
17.65	-26.0032	759.56	75.8089	-275.3359	-92.8987	846.4517	-1.3023	8.7642	-2.3371	3.122	2.7893	8.7477	-0.0592	0.0182	-0.0073	-0.0462	0.0165	0.9585
17.6614	-23.8963	768.5061	78.2163	-277.1381	-94.4303	852.4014	-1.7675	1.7693	-1.0238	0.58796	1.7338	2.3663	-0.0592	0.0182	-0.0073	-0.0462	0.0165	0.9585
17.6729	-21.8059	772.7747	79.6873	-277.2096	-94.9435	853.2892	-1.8372	-1.7155	-0.17987	-0.67079	0.97547	-0.80332	-0.0592	0.0182	-0.0073	-0.0462	0.0165	0.9585
17.6843	-19.6641	772.2155	80.4552	-275.5562	-94.6539	848.9647	-1.6971	-2.8303	0.30287	-1.0665	0.47569	-1.8099	-0.0592	0.0182	-0.0073	-0.0462	0.0165	0.9585
17.6957	-17.5027	767.1667	80.6883	-272.3605	-93.7558	839.8221	-1.4553	-2.5286	0.50515	-0.9443	0.19848	-1.5307	-0.0592	0.0182	-0.0073	-0.0462	0.0165	0.9585
17.7071	-15.3292	758.5581	80.4432	-268.0179	-92.328	826.8793	-1.2011	-1.5158	0.53322	-0.56047	0.073408	-0.60092	-0.0592	0.0182	-0.0073	-0.0462	0.0165	0.9585
17.7186	-13.1748	747.7563	79.7314	-263.0733	-90.4017	811.616	-0.95646	-0.28024	0.44547	-0.091406	0.058433	0.5189	-0.0592	0.0182	-0.0073	-0.0462	0.0165	0.9585
17.73	-11.0193	736.2567	78.5087	-258.1049	-87.9351	795.6024	-0.76258	0.90594	0.30901	0.36127	0.10298	1.5852	-0.0592	0.0182	-0.0073	-0.0462	0.0165	0.9585
17.7414	-8.8224	725.4642	76.8966	-253.6224	-85.0437	780.3273	-0.59362	1.8933	0.15964	0.74185	0.17267	2.4527	-0.0592	0.0182	-0.0073	-0.0462	0.0165	0.9585
17.7529	-6.5604	716.4507	75.0047	-249.9999	-81.8334	766.8896	-0.47884	2.6436	0.022625	1.0342	0.24987	3.1114	-0.0592	0.0182	-0.0073	-0.0462	0.0165	0.9585
17.7643	-4.221	710	73.0158	-247.4848	-78.4879	756.0886	-0.38397	3.17	-0.085776	1.2426	0.31123	3.5822	-0.0592	0.0182	-0.0073	-0.0462	0.0165	0.9585
17.7757	-1.7948	706.5087	71.019	-246.1835	-75.0937	748.3055	-0.3393	3.5176	-0.16331	1.3829	0.3593	3.9331	-0.0592	0.0182	-0.0073	-0.0462	0.0165	0.9585
17.7871	0.70206	706.001	69.0666	-246.0634	-71.704	743.5268	-0.30005	3.7387	-0.20447	1.4753	0.38019	4.1896	-0.0592	0.0182	-0.0073	-0.0462	0.0165	0.9585
17.7986	3.2641	708.1097	67.209	-246.9553	-68.3633	741.3454	-0.29679	3.8927	-0.21914	1.5389	0.39032	4.4154	-0.0592	0.0182	-0.0073	-0.0462	0.0165	0.9585
17.81	5.9108	712.195	65.4527	-248.6	-65.0765	741.0961	-0.30342	4.0042	-0.20813	1.5832	0.3803	4.6084	-0.0592	0.0182	-0.0073	-0.0462	0.0165	0.9585
17.8214	8.6465	717.5014	63.8658	-250.6988	-61.9096	742.0058	-0.34767	4.1045	-0.19597	1.6133	0.38106	4.796	-0.0592	0.0182	-0.0073	-0.0462	0.0165	0.9585
17.8329	11.5138	723.2977	62.4271	-252.9699	-58.837	743.3356	-0.42512	4.147	-0.18086	1.6158	0.39388	4.895	-0.0592	0.0182	-0.0073	-0.0462	0.0165	0.9585
17.8443	14.5355	729.0361	61.1801	-255.1945	-55.899	744.544	-0.55442	4.1036	-0.18576	1.5768	0.4489	4.881	-0.0592	0.0182	-0.0073	-0.0462	0.0165	0.9585
17.8557	17.7461	734.4205	60.132	-257.2471	-53.098	745.3333	-0.72824	3.8595	-0.2061	1.4593	0.53963	4.5995	-0.0592	0.0182	-0.0073	-0.0462	0.0165	0.9585
17.8671	21.1444	739.4157	59.3582	-259.0887	-50.5194	745.7094	-0.95753	3.3229	-0.25397	1.2266	0.68168	3.9539	-0.0592	0.0182	-0.0073	-0.0462	0.0165	0.9585
17.8786	24.6932	744.1728	58.9305	-260.7506	-48.2574	745.8607	-1.2005	2.3387	-0.32836	0.82681	0.85973	2.7435	-0.0592	0.0182	-0.0073	-0.0462	0.0165	0.9585
17.89	28.3158	748.9457	58.9186	-262.3033	-46.4148	746.0882	-1.4386	0.80133	-0.42131	0.22122	1.0556	0.85114	-0.0592	0.0182	-0.0073	-0.0462	0.0165	0.9585
17.9014	31.9296	753.9211	59.3991	-263.8066	-45.0938	746.6028	-1.5775	-1.3776	-0.52406	-0.6194	1.2229	-1.8408	-0.0592	0.0182	-0.0073	-0.0462	0.0165	0.9585
17.9129	35.4463	759.119	60.368	-265.2742	-44.3203	747.4489	-1.5475	-4.1414	-0.58931	-1.6764	1.2763	-5.2541	-0.0592	0.0182	-0.0073	-0.0462	0.0165	0.9585
17.9243	38.799	764.2997	61.7998	-266.6369	-44.087	748.4178	-1.1813	-7.272	-0.58178	-2.8639	1.1066	-9.1354	-0.0592	0.0182	-0.0073	-0.0462	0.0165	0.9585
17.9357	41.9078	768.9304	63.5405	-267.7283	-44.2671	749.0172	-0.32872	-10.2395	-0.42364	-3.9779	0.55715	-12.824	-0.0592	0.0182	-0.0073	-0.0462	0.0165	0.9585
17.9471	44.6788	772.18	65.4611	-268.2732	-44.7582	748.467	1.2489	-12.156	-0.032917	-4.6698	-0.55796	-15.2361	-0.0592	0.0182	-0.0073	-0.0462	0.0165	0.9585
17.9586	47.039	773.1182	67.3776	-267.9559	-45.406	745.8964	3.7181	-11.5995	0.69527	-4.392	-2.4274	-14.6127	-0.0592	0.0182	-0.0073	-0.0462	0.0165	0.9585
17.97	48.9435	770.9605	69.167	-266.5084	-46.1041	740.559	7.2412	-6.6159	1.8598	-2.3868	-5.2181	-8.5666	-0.0592	0.0182	-0.0073	-0.0462	0.0165	0.9585
17.9814	50.4277	765.2254	70.7051	-263.772	-46.7282	731.9992	11.7545	5.2951	3.5125	2.3098	-8.9714	5.9835	-0.0592	0.0182	-0.0073	-0.0462	0.0165	0.9585
17.9929	51.5834	755.674	71.8729	-259.6819	-47.1418	719.9814	16.9749	26.9479	5.6316	10.7806	-13.5309	32.5026	-0.0592	0.0182	-0.0073	-0.0462	0.0165	0.9585
18.0043	52.5334	742.1846	72.5427	-254.2228	-47.1954	704.3938	22.1004	61.0381	8.0426	24.051	-18.3613	74.3527	-0.0592	0.0182	-0.0073	-0.0462	0.0165	0.9585
18.0157	53.3993	724.5591	72.5035	-247.3702	-46.6645	685.0585	25.7596	109.2913	10.3635	42.7634	-22.4312	133.6781	-0.0592	0.0182	-0.0073	-0.0462	0.0165	0.9585
18.0271	54.2048	702.2972	71.5306	-239.0061	-45.3468	661.549	25.7323	171.2753	11.8834	66.7103	-24.0048	210.0009	-0.0592	0.0182	-0.0073	-0.0462	0.0165	0.9585
18.0386	54.8513	674.4359	69.3538	-228.8631	-43.0397	633.0276	19.6394	243.2414	11.6231	94.3901	-20.9912	298.7561	-0.0592	0.0182	-0.0073	-0.0462	0.0165	0.9585
18.05	55.0694	639.7217	65.7875	-216.5611	-39.6751	598.4199	6.4444	317.6483	8.4792	122.8259	-11.6839	390.6749	-0.0592	0.0182	-0.0073	-0.0462	0.0165	0.9585
